# This file uses centimeters as units for non-parametric coordinates.
mtllib Frisbee.mtl
g default
v 2.815762 3.119411 -0.914897
v 2.395231 3.119411 -1.740237
v 1.740237 3.119411 -2.395230
v 0.914897 3.119411 -2.815762
v 0.000000 3.119411 -2.960667
v -0.914897 3.119411 -2.815762
v -1.740236 3.119411 -2.395230
v -2.395230 3.119411 -1.740236
v -2.815761 3.119411 -0.914896
v -2.960666 3.119411 0.000000
v -2.815761 3.119411 0.914896
v -2.395229 3.119411 1.740236
v -1.740236 3.119411 2.395229
v -0.914896 3.119411 2.815761
v -0.000000 3.119411 2.960666
v 0.914896 3.119411 2.815761
v 1.740236 3.119411 2.395229
v 2.395229 3.119411 1.740236
v 2.815760 3.119411 0.914896
v 2.960666 3.119411 0.000000
v 1.103742 3.633205 -0.358628
v 0.938898 3.633205 -0.682150
v 0.682150 3.633205 -0.938899
v 0.358627 3.633205 -1.103743
v -0.000000 3.633205 -1.160540
v -0.358628 3.633205 -1.103743
v -0.682150 3.633205 -0.938899
v -0.938899 3.633205 -0.682150
v -1.103742 3.633205 -0.358628
v -1.160540 3.633205 -0.000000
v -1.103742 3.633205 0.358627
v -0.938899 3.633205 0.682150
v -0.682150 3.633205 0.938898
v -0.358628 3.633205 1.103742
v -0.000000 3.633205 1.160539
v 0.358627 3.633205 1.103742
v 0.682150 3.633205 0.938898
v 0.938898 3.633205 0.682149
v 1.103742 3.633205 0.358627
v 1.160539 3.633205 -0.000000
v 0.000000 3.220907 0.000000
v 0.000000 3.716921 0.000000
v -0.887166 3.432678 2.730417
v -1.687491 3.432678 2.322632
v -2.322632 3.432678 1.687491
v -2.730418 3.432678 0.887166
v -2.870931 3.432678 -0.000000
v -2.730418 3.432678 -0.887166
v -2.322632 3.432678 -1.687491
v -1.687491 3.432678 -2.322632
v -0.887167 3.432678 -2.730418
v -0.000000 3.432678 -2.870931
v 0.887167 3.432678 -2.730418
v 1.687491 3.432678 -2.322633
v 2.322633 3.432678 -1.687491
v 2.730419 3.432678 -0.887167
v 2.870930 3.432678 -0.000000
v 2.730417 3.432678 0.887166
v 2.322631 3.432678 1.687491
v 1.687490 3.432678 2.322632
v 0.887166 3.432678 2.730417
v -0.000000 3.432678 2.870930
v -0.709571 3.522009 2.183832
v -1.349683 3.522009 1.857679
v -1.857679 3.522009 1.349683
v -2.183833 3.522009 0.709570
v -2.296218 3.522009 -0.000000
v -2.183833 3.522009 -0.709571
v -1.857679 3.522009 -1.349683
v -1.349683 3.522009 -1.857679
v -0.709571 3.522009 -2.183833
v -0.000000 3.522009 -2.296219
v 0.709571 3.522009 -2.183833
v 1.349683 3.522009 -1.857680
v 1.857680 3.522009 -1.349683
v 2.183834 3.522009 -0.709571
v 2.296218 3.522009 -0.000000
v 2.183832 3.522009 0.709570
v 1.857679 3.522009 1.349683
v 1.349682 3.522009 1.857679
v 0.709570 3.522009 2.183832
v -0.000000 3.522009 2.296218
v 2.366660 3.371313 1.728400
v 1.719479 3.371313 2.375581
v 0.903984 3.371313 2.791097
v -0.000000 3.371313 2.934274
v -0.903984 3.371313 2.791097
v -1.719480 3.371313 2.375581
v -2.366661 3.371313 1.728401
v -2.782176 3.371313 0.912905
v -2.925354 3.371313 0.008921
v -2.782176 3.371313 -0.895063
v -2.366661 3.371313 -1.710559
v -1.719480 3.371313 -2.357740
v -0.903984 3.371313 -2.773256
v 0.000000 3.371313 -2.916433
v 0.903984 3.371313 -2.773256
v 1.719480 3.371313 -2.357740
v 2.366662 3.371313 -1.710559
v 2.782177 3.371313 -0.895063
v 2.925353 3.371313 0.008921
v 2.782176 3.371313 0.912905
vt 0.648603 0.107966
vt 0.626409 0.064408
vt 0.591842 0.029841
vt 0.548284 0.007647
vt 0.500000 -0.000000
vt 0.451716 0.007647
vt 0.408159 0.029841
vt 0.373591 0.064409
vt 0.351397 0.107966
vt 0.343750 0.156250
vt 0.351397 0.204534
vt 0.373591 0.248091
vt 0.408159 0.282659
vt 0.451716 0.304853
vt 0.500000 0.312500
vt 0.548284 0.304853
vt 0.591841 0.282659
vt 0.626409 0.248091
vt 0.648603 0.204534
vt 0.656250 0.156250
vt 0.375000 0.312500
vt 0.387500 0.312500
vt 0.400000 0.312500
vt 0.412500 0.312500
vt 0.425000 0.312500
vt 0.437500 0.312500
vt 0.450000 0.312500
vt 0.462500 0.312500
vt 0.475000 0.312500
vt 0.487500 0.312500
vt 0.500000 0.312500
vt 0.512500 0.312500
vt 0.525000 0.312500
vt 0.537500 0.312500
vt 0.550000 0.312500
vt 0.562500 0.312500
vt 0.575000 0.312500
vt 0.587500 0.312500
vt 0.600000 0.312500
vt 0.612500 0.312500
vt 0.625000 0.312500
vt 0.375000 0.688440
vt 0.387500 0.688440
vt 0.400000 0.688440
vt 0.412500 0.688440
vt 0.425000 0.688440
vt 0.437500 0.688440
vt 0.450000 0.688440
vt 0.462500 0.688440
vt 0.475000 0.688440
vt 0.487500 0.688440
vt 0.500000 0.688440
vt 0.512500 0.688440
vt 0.525000 0.688440
vt 0.537500 0.688440
vt 0.550000 0.688440
vt 0.562500 0.688440
vt 0.575000 0.688440
vt 0.587500 0.688440
vt 0.600000 0.688440
vt 0.612500 0.688440
vt 0.625000 0.688440
vt 0.648603 0.795466
vt 0.626409 0.751908
vt 0.591842 0.717341
vt 0.548284 0.695147
vt 0.500000 0.687500
vt 0.451716 0.695147
vt 0.408159 0.717341
vt 0.373591 0.751909
vt 0.351397 0.795466
vt 0.343750 0.843750
vt 0.351397 0.892034
vt 0.373591 0.935591
vt 0.408159 0.970159
vt 0.451716 0.992353
vt 0.500000 1.000000
vt 0.548284 0.992353
vt 0.591841 0.970159
vt 0.626409 0.935591
vt 0.648603 0.892034
vt 0.656250 0.843750
vt 0.500000 0.150000
vt 0.500000 0.837500
vt 0.537500 0.500470
vt 0.525000 0.500470
vt 0.512500 0.500470
vt 0.500000 0.500470
vt 0.487500 0.500470
vt 0.475000 0.500470
vt 0.462500 0.500470
vt 0.450000 0.500470
vt 0.437500 0.500470
vt 0.425000 0.500470
vt 0.412500 0.500470
vt 0.400000 0.500470
vt 0.387500 0.500470
vt 0.625000 0.500470
vt 0.375000 0.500470
vt 0.612500 0.500470
vt 0.600000 0.500470
vt 0.587500 0.500470
vt 0.575000 0.500470
vt 0.562500 0.500470
vt 0.550000 0.500470
vt 0.537500 0.594455
vt 0.525000 0.594455
vt 0.512500 0.594455
vt 0.500000 0.594455
vt 0.487500 0.594455
vt 0.475000 0.594455
vt 0.462500 0.594455
vt 0.450000 0.594455
vt 0.437500 0.594455
vt 0.425000 0.594455
vt 0.412500 0.594455
vt 0.400000 0.594455
vt 0.387500 0.594455
vt 0.625000 0.594455
vt 0.375000 0.594455
vt 0.612500 0.594455
vt 0.600000 0.594455
vt 0.587500 0.594455
vt 0.575000 0.594455
vt 0.562500 0.594455
vt 0.550000 0.594455
vt 0.587500 0.406485
vt 0.575000 0.406485
vt 0.562500 0.406485
vt 0.550000 0.406485
vt 0.537500 0.406485
vt 0.525000 0.406485
vt 0.512500 0.406485
vt 0.500000 0.406485
vt 0.487500 0.406485
vt 0.475000 0.406485
vt 0.462500 0.406485
vt 0.450000 0.406485
vt 0.437500 0.406485
vt 0.425000 0.406485
vt 0.412500 0.406485
vt 0.400000 0.406485
vt 0.387500 0.406485
vt 0.625000 0.406485
vt 0.375000 0.406485
vt 0.612500 0.406485
vt 0.600000 0.406485
vn 0.940302 0.149441 -0.305777
vn 0.798609 0.158961 -0.580479
vn 0.778384 0.273394 -0.565132
vn 0.914987 0.273221 -0.296899
vn 0.579461 0.166484 -0.797815
vn 0.565559 0.273527 -0.778027
vn 0.304374 0.171298 -0.937024
vn 0.297342 0.273611 -0.914727
vn -0.000000 0.172954 -0.984930
vn -0.000000 0.273639 -0.961832
vn -0.304375 0.171298 -0.937024
vn -0.297342 0.273611 -0.914727
vn -0.579461 0.166483 -0.797815
vn -0.565559 0.273527 -0.778027
vn -0.798609 0.158961 -0.580478
vn -0.778384 0.273394 -0.565131
vn -0.940302 0.149441 -0.305778
vn -0.914987 0.273220 -0.296900
vn -0.990315 0.138836 -0.000256
vn -0.962008 0.273021 0.000398
vn -0.943286 0.128184 0.306236
vn -0.914863 0.272814 0.297655
vn -0.803435 0.118534 0.583473
vn -0.778184 0.272620 0.565781
vn -0.584285 0.110851 0.803942
vn -0.565358 0.272462 0.778547
vn -0.307355 0.105907 0.945683
vn -0.297218 0.272358 0.915141
vn 0.000000 0.104201 0.994556
vn 0.000000 0.272322 0.962206
vn 0.307355 0.105906 0.945683
vn 0.297218 0.272358 0.915141
vn 0.584285 0.110851 0.803942
vn 0.565358 0.272462 0.778547
vn 0.803436 0.118534 0.583473
vn 0.778184 0.272620 0.565781
vn 0.943286 0.128184 0.306236
vn 0.914863 0.272813 0.297655
vn 0.990315 0.138837 -0.000255
vn 0.962008 0.273021 0.000399
vn -0.027718 -0.999413 0.020138
vn -0.032584 -0.999413 0.010587
vn -0.000000 -1.000000 -0.000000
vn -0.020138 -0.999413 0.027718
vn -0.010587 -0.999413 0.032584
vn 0.000000 -0.999413 0.034261
vn 0.010587 -0.999413 0.032584
vn 0.020138 -0.999413 0.027718
vn 0.027718 -0.999413 0.020138
vn 0.032584 -0.999413 0.010587
vn 0.034261 -0.999413 0.000000
vn 0.032584 -0.999413 -0.010587
vn 0.027718 -0.999413 -0.020138
vn 0.020138 -0.999413 -0.027718
vn 0.010587 -0.999413 -0.032584
vn -0.000000 -0.999413 -0.034261
vn -0.010587 -0.999413 -0.032584
vn -0.020138 -0.999413 -0.027718
vn -0.027718 -0.999413 -0.020138
vn -0.032584 -0.999413 -0.010587
vn -0.034261 -0.999413 -0.000000
vn 0.087084 0.995799 -0.028295
vn 0.074078 0.995799 -0.053821
vn 0.000000 1.000000 0.000000
vn 0.053821 0.995799 -0.074078
vn 0.028295 0.995799 -0.087084
vn -0.000000 0.995799 -0.091566
vn -0.028295 0.995799 -0.087084
vn -0.053821 0.995799 -0.074078
vn -0.074078 0.995799 -0.053821
vn -0.087084 0.995799 -0.028295
vn -0.091566 0.995799 -0.000000
vn -0.087084 0.995799 0.028295
vn -0.074078 0.995799 0.053821
vn -0.053821 0.995799 0.074078
vn -0.028295 0.995799 0.087084
vn 0.000000 0.995799 0.091566
vn 0.028295 0.995799 0.087084
vn 0.053821 0.995799 0.074078
vn 0.074078 0.995799 0.053821
vn 0.087084 0.995799 0.028295
vn 0.091566 0.995799 0.000000
vn -0.142519 0.970183 0.196046
vn -0.074772 0.970311 0.230011
vn -0.038072 0.992381 0.117175
vn -0.072418 0.992381 0.099675
vn -0.196792 0.969981 0.142864
vn -0.099675 0.992381 0.072418
vn -0.232286 0.969724 0.075359
vn -0.117175 0.992381 0.038072
vn -0.245347 0.969435 -0.000115
vn -0.123205 0.992381 0.000000
vn -0.234401 0.969143 -0.076277
vn -0.117175 0.992381 -0.038072
vn -0.200214 0.968876 -0.145580
vn -0.099675 0.992381 -0.072418
vn -0.145940 0.968662 -0.200986
vn -0.072418 0.992381 -0.099675
vn -0.076887 0.968523 -0.236750
vn -0.038073 0.992381 -0.117175
vn -0.000000 0.968476 -0.249109
vn -0.000000 0.992381 -0.123205
vn 0.076887 0.968523 -0.236750
vn 0.038072 0.992381 -0.117175
vn 0.145940 0.968662 -0.200986
vn 0.072418 0.992381 -0.099675
vn 0.200214 0.968876 -0.145580
vn 0.099675 0.992381 -0.072418
vn 0.234401 0.969143 -0.076277
vn 0.117175 0.992381 -0.038072
vn 0.245347 0.969435 -0.000115
vn 0.123205 0.992381 0.000000
vn 0.232286 0.969724 0.075359
vn 0.117175 0.992381 0.038072
vn 0.196792 0.969981 0.142864
vn 0.099675 0.992381 0.072418
vn 0.142519 0.970183 0.196046
vn 0.072418 0.992381 0.099675
vn 0.074772 0.970311 0.230011
vn 0.038072 0.992381 0.117175
vn 0.000000 0.970355 0.241682
vn 0.000000 0.992381 0.123205
s 1
g pCylinder1
usemtl lambert3SG
f 1/21/1 2/22/2 99/143/3 100/145/4
f 2/22/2 3/23/5 98/142/6 99/143/3
f 3/23/5 4/24/7 97/141/8 98/142/6
f 4/24/7 5/25/9 96/140/10 97/141/8
f 5/25/9 6/26/11 95/139/12 96/140/10
f 6/26/11 7/27/13 94/138/14 95/139/12
f 7/27/13 8/28/15 93/137/16 94/138/14
f 8/28/15 9/29/17 92/136/18 93/137/16
f 9/29/17 10/30/19 91/135/20 92/136/18
f 10/30/19 11/31/21 90/134/22 91/135/20
f 11/31/21 12/32/23 89/133/24 90/134/22
f 12/32/23 13/33/25 88/132/26 89/133/24
f 13/33/25 14/34/27 87/131/28 88/132/26
f 14/34/27 15/35/29 86/130/30 87/131/28
f 15/35/29 16/36/31 85/129/32 86/130/30
f 16/36/31 17/37/33 84/128/34 85/129/32
f 17/37/33 18/38/35 83/127/36 84/128/34
f 18/38/35 19/39/37 102/147/38 83/127/36
f 19/39/37 20/40/39 101/146/40 102/147/38
f 20/40/39 1/41/1 100/144/4 101/146/40
s 2
f 2/2/41 1/1/42 41/83/43
f 3/3/44 2/2/41 41/83/43
f 4/4/45 3/3/44 41/83/43
f 5/5/46 4/4/45 41/83/43
f 6/6/47 5/5/46 41/83/43
f 7/7/48 6/6/47 41/83/43
f 8/8/49 7/7/48 41/83/43
f 9/9/50 8/8/49 41/83/43
f 10/10/51 9/9/50 41/83/43
f 11/11/52 10/10/51 41/83/43
f 12/12/53 11/11/52 41/83/43
f 13/13/54 12/12/53 41/83/43
f 14/14/55 13/13/54 41/83/43
f 15/15/56 14/14/55 41/83/43
f 16/16/57 15/15/56 41/83/43
f 17/17/58 16/16/57 41/83/43
f 18/18/59 17/17/58 41/83/43
f 19/19/60 18/18/59 41/83/43
f 20/20/61 19/19/60 41/83/43
f 1/1/42 20/20/61 41/83/43
s 1
f 21/81/62 22/80/63 42/84/64
f 22/80/63 23/79/65 42/84/64
f 23/79/65 24/78/66 42/84/64
f 24/78/66 25/77/67 42/84/64
f 25/77/67 26/76/68 42/84/64
f 26/76/68 27/75/69 42/84/64
f 27/75/69 28/74/70 42/84/64
f 28/74/70 29/73/71 42/84/64
f 29/73/71 30/72/72 42/84/64
f 30/72/72 31/71/73 42/84/64
f 31/71/73 32/70/74 42/84/64
f 32/70/74 33/69/75 42/84/64
f 33/69/75 34/68/76 42/84/64
f 34/68/76 35/67/77 42/84/64
f 35/67/77 36/66/78 42/84/64
f 36/66/78 37/65/79 42/84/64
f 37/65/79 38/64/80 42/84/64
f 38/64/80 39/63/81 42/84/64
f 39/63/81 40/82/82 42/84/64
f 40/82/82 21/81/62 42/84/64
f 44/86/83 43/85/84 63/106/85 64/107/86
f 45/87/87 44/86/83 64/107/86 65/108/88
f 46/88/89 45/87/87 65/108/88 66/109/90
f 47/89/91 46/88/89 66/109/90 67/110/92
f 48/90/93 47/89/91 67/110/92 68/111/94
f 49/91/95 48/90/93 68/111/94 69/112/96
f 50/92/97 49/91/95 69/112/96 70/113/98
f 51/93/99 50/92/97 70/113/98 71/114/100
f 52/94/101 51/93/99 71/114/100 72/115/102
f 53/95/103 52/94/101 72/115/102 73/116/104
f 54/96/105 53/95/103 73/116/104 74/117/106
f 55/97/107 54/96/105 74/117/106 75/118/108
f 56/99/109 55/97/107 75/118/108 76/120/110
f 57/100/111 56/98/109 76/119/110 77/121/112
f 58/101/113 57/100/111 77/121/112 78/122/114
f 59/102/115 58/101/113 78/122/114 79/123/116
f 60/103/117 59/102/115 79/123/116 80/124/118
f 61/104/119 60/103/117 80/124/118 81/125/120
f 62/105/121 61/104/119 81/125/120 82/126/122
f 43/85/84 62/105/121 82/126/122 63/106/85
usemtl lambert2SG
f 64/107/86 63/106/85 34/55/76 33/54/75
f 65/108/88 64/107/86 33/54/75 32/53/74
usemtl lambert3SG
f 66/109/90 65/108/88 32/53/74 31/52/73
f 67/110/92 66/109/90 31/52/73 30/51/72
f 68/111/94 67/110/92 30/51/72 29/50/71
f 69/112/96 68/111/94 29/50/71 28/49/70
usemtl lambert2SG
f 70/113/98 69/112/96 28/49/70 27/48/69
f 71/114/100 70/113/98 27/48/69 26/47/68
f 72/115/102 71/114/100 26/47/68 25/46/67
f 73/116/104 72/115/102 25/46/67 24/45/66
f 74/117/106 73/116/104 24/45/66 23/44/65
f 75/118/108 74/117/106 23/44/65 22/43/63
usemtl lambert3SG
f 76/120/110 75/118/108 22/43/63 21/42/62
f 77/121/112 76/119/110 21/62/62 40/61/82
f 78/122/114 77/121/112 40/61/82 39/60/81
f 79/123/116 78/122/114 39/60/81 38/59/80
usemtl lambert2SG
f 80/124/118 79/123/116 38/59/80 37/58/79
f 81/125/120 80/124/118 37/58/79 36/57/78
f 82/126/122 81/125/120 36/57/78 35/56/77
f 63/106/85 82/126/122 35/56/77 34/55/76
usemtl lambert3SG
f 84/128/34 83/127/36 59/102/115 60/103/117
f 85/129/32 84/128/34 60/103/117 61/104/119
f 86/130/30 85/129/32 61/104/119 62/105/121
f 87/131/28 86/130/30 62/105/121 43/85/84
f 88/132/26 87/131/28 43/85/84 44/86/83
f 89/133/24 88/132/26 44/86/83 45/87/87
f 90/134/22 89/133/24 45/87/87 46/88/89
f 91/135/20 90/134/22 46/88/89 47/89/91
f 92/136/18 91/135/20 47/89/91 48/90/93
f 93/137/16 92/136/18 48/90/93 49/91/95
f 94/138/14 93/137/16 49/91/95 50/92/97
f 95/139/12 94/138/14 50/92/97 51/93/99
f 96/140/10 95/139/12 51/93/99 52/94/101
f 97/141/8 96/140/10 52/94/101 53/95/103
f 98/142/6 97/141/8 53/95/103 54/96/105
f 99/143/3 98/142/6 54/96/105 55/97/107
f 100/145/4 99/143/3 55/97/107 56/99/109
f 101/146/40 100/144/4 56/98/109 57/100/111
f 102/147/38 101/146/40 57/100/111 58/101/113
f 83/127/36 102/147/38 58/101/113 59/102/115
